<svg xmlns="http://www.w3.org/2000/svg">
  <symbol id="i-leaf" viewBox="0 0 24 24"><path d="M11 20A7 7 0 0 1 9.8 6.1C15.5 5 17 4.48 19 2c1 2 2 4.18 2 8 0 5.5-4.78 10-10 10Z"/><path d="M2 21c0-3 1.85-5.36 5.08-6"/></symbol>
  <symbol id="i-scale" viewBox="0 0 24 24"><path d="m16 16 3-8 3 8c-.87.65-1.92 1-3 1s-2.13-.35-3-1Z"/><path d="m2 16 3-8 3 8c-.87.65-1.92 1-3 1s-2.13-.35-3-1Z"/><path d="M7 21h10"/><path d="M12 3v18"/><path d="M3 7h2c2 0 5-1 7-2 2 1 5 2 7 2h2"/></symbol>
  <symbol id="i-dumbbell" viewBox="0 0 24 24"><path d="m6.5 6.5 11 11"/><path d="m21 21-1-1"/><path d="m3 3 1 1"/><path d="m18 22 4-4"/><path d="m2 6 4-4"/><path d="m3 10 7-7"/><path d="m14 21 7-7"/></symbol>
  <symbol id="i-heart-pulse" viewBox="0 0 24 24"><path d="M19 14c1.49-1.46 3-3.21 3-5.5A5.5 5.5 0 0 0 16.5 3c-1.76 0-3 .5-4.5 2-1.5-1.5-2.74-2-4.5-2A5.5 5.5 0 0 0 2 8.5c0 2.3 1.5 4.05 3 5.5l7 7Z"/><path d="M3.22 12H9.5l.5-1 2 4.5 2-7 1.5 3.5h5.27"/></symbol>
  <symbol id="i-droplet" viewBox="0 0 24 24"><path d="M12 22a7 7 0 0 0 7-7c0-2-1-3.9-3-5.5s-3.5-4-4-6.5c-.5 2.5-2 4.9-4 6.5C6 11.1 5 13 5 15a7 7 0 0 0 7 7Z"/></symbol>
  <symbol id="i-sparkle" viewBox="0 0 24 24"><path d="M9.94 14.66A1 1 0 0 0 9 14a1 1 0 0 0 .94-.66l.65-1.74a3 3 0 0 1 1.78-1.78l1.74-.65A1 1 0 0 0 14 8a1 1 0 0 0-.66-.94l-1.74-.65a3 3 0 0 1-1.78-1.78L9.17 2.9a1 1 0 0 0-1.88 0l-.65 1.74a3 3 0 0 1-1.78 1.78L3.1 7.06a1 1 0 0 0 0 1.88l1.74.65a3 3 0 0 1 1.78 1.78l.65 1.74Z"/><path d="M18 13a1 1 0 0 0-.7.7l-.4 1.1a1 1 0 0 1-.6.6l-1.1.4a1 1 0 0 0 0 1.86l1.1.4a1 1 0 0 1 .6.6l.4 1.1a1 1 0 0 0 1.86 0l.4-1.1a1 1 0 0 1 .6-.6l1.1-.4a1 1 0 0 0 0-1.86l-1.1-.4a1 1 0 0 1-.6-.6l-.4-1.1A1 1 0 0 0 18 13Z"/></symbol>
  <symbol id="i-arrow-right" viewBox="0 0 24 24"><path d="M5 12h14"/><path d="m12 5 7 7-7 7"/></symbol>
  <symbol id="i-menu" viewBox="0 0 24 24"><path d="M4 12h16"/><path d="M4 6h16"/><path d="M4 18h16"/></symbol>
  <symbol id="i-close" viewBox="0 0 24 24"><path d="M18 6 6 18"/><path d="m6 6 12 12"/></symbol>
  <symbol id="i-search" viewBox="0 0 24 24"><circle cx="11" cy="11" r="8"/><path d="m21 21-4.3-4.3"/></symbol>
  <symbol id="i-check" viewBox="0 0 24 24"><path d="M20 6 9 17l-5-5"/></symbol>
  <symbol id="i-link" viewBox="0 0 24 24"><path d="M10 13a5 5 0 0 0 7.54.54l3-3a5 5 0 0 0-7.07-7.07l-1.72 1.71"/><path d="M14 11a5 5 0 0 0-7.54-.54l-3 3a5 5 0 0 0 7.07 7.07l1.71-1.71"/></symbol>
  <symbol id="i-chevron-down" viewBox="0 0 24 24"><path d="m6 9 6 6 6-6"/></symbol>
  <symbol id="i-printer" viewBox="0 0 24 24"><path d="M6 18H4a2 2 0 0 1-2-2v-5a2 2 0 0 1 2-2h16a2 2 0 0 1 2 2v5a2 2 0 0 1-2 2h-2"/><path d="M6 9V2h12v7"/><path d="M6 14h12v8H6z"/></symbol>
  <symbol id="i-download" viewBox="0 0 24 24"><path d="M21 15v4a2 2 0 0 1-2 2H5a2 2 0 0 1-2-2v-4"/><path d="M7 10l5 5 5-5"/><path d="M12 15V3"/></symbol>
  <symbol id="i-share" viewBox="0 0 24 24"><circle cx="18" cy="5" r="3"/><circle cx="6" cy="12" r="3"/><circle cx="18" cy="19" r="3"/><line x1="8.59" x2="15.42" y1="13.51" y2="17.49"/><line x1="15.41" x2="8.59" y1="6.51" y2="10.49"/></symbol>
  <symbol id="i-shield" viewBox="0 0 24 24"><path d="M20 13c0 5-3.5 7.5-7.66 8.95a1 1 0 0 1-.67-.01C7.5 20.5 4 18 4 13V6a1 1 0 0 1 1-1c2 0 4.5-1.2 6.24-2.72a1.17 1.17 0 0 1 1.52 0C14.51 3.81 17 5 19 5a1 1 0 0 1 1 1Z"/><path d="m9 12 2 2 4-4"/></symbol>
  <symbol id="i-flask" viewBox="0 0 24 24"><path d="M10 2v7.31"/><path d="M14 9.3V1.99"/><path d="M8.5 2h7"/><path d="M14 9.3a6.5 6.5 0 1 1-4 0"/><path d="M5.58 16.5h12.85"/></symbol>
  <symbol id="i-lock" viewBox="0 0 24 24"><rect width="18" height="11" x="3" y="11" rx="2" ry="2"/><path d="M7 11V7a5 5 0 0 1 10 0v4"/></symbol>
  <symbol id="i-book" viewBox="0 0 24 24"><path d="M4 19.5v-15A2.5 2.5 0 0 1 6.5 2H20v20H6.5a2.5 2.5 0 0 1 0-5H20"/></symbol>
  <symbol id="i-star" viewBox="0 0 24 24"><polygon points="12 2 15.09 8.26 22 9.27 17 14.14 18.18 21.02 12 17.77 5.82 21.02 7 14.14 2 9.27 8.91 8.26 12 2"/></symbol>
  <symbol id="i-zap" viewBox="0 0 24 24"><path d="M4 14a1 1 0 0 1-.78-1.63l9.9-10.2a.5.5 0 0 1 .86.46l-1.92 6.02A1 1 0 0 0 13 10h7a1 1 0 0 1 .78 1.63l-9.9 10.2a.5.5 0 0 1-.86-.46l1.92-6.02A1 1 0 0 0 11 14z"/></symbol>
  <symbol id="i-moon" viewBox="0 0 24 24"><path d="M12 3a6 6 0 0 0 9 9 9 9 0 1 1-9-9Z"/></symbol>
  <symbol id="i-clock" viewBox="0 0 24 24"><circle cx="12" cy="12" r="10"/><path d="M12 6v6l4 2"/></symbol>
  <symbol id="i-gauge" viewBox="0 0 24 24"><path d="m12 14 4-4"/><path d="M3.34 19a10 10 0 1 1 17.32 0"/></symbol>
  <symbol id="i-smile" viewBox="0 0 24 24"><circle cx="12" cy="12" r="10"/><path d="M8 14s1.5 2 4 2 4-2 4-2"/><line x1="9" y1="9" x2="9.01" y2="9"/><line x1="15" y1="9" x2="15.01" y2="9"/></symbol>
  <symbol id="i-flame" viewBox="0 0 24 24"><path d="M8.5 14.5A2.5 2.5 0 0 0 11 12c0-1.38-.5-2-1-3-1.072-2.143-.224-4.054 2-6 .5 2.5 2 4.9 4 6.5 2 1.6 3 3.5 3 5.5a7 7 0 1 1-14 0c0-1.153.433-2.294 1-3a2.5 2.5 0 0 0 2.5 2.5z"/></symbol>
  <symbol id="i-pie-chart" viewBox="0 0 24 24"><path d="M21.21 15.89A10 10 0 1 1 8 2.83"/><path d="M22 12A10 10 0 0 0 12 2v10z"/></symbol>
  <symbol id="i-egg" viewBox="0 0 24 24"><path d="M12 22c6.23-.05 7.87-5.57 7.5-10-.36-4.34-3.95-9.96-7.5-10-3.55.04-7.14 5.66-7.5 10-.37 4.43 1.27 9.95 7.5 10z"/></symbol>
  <symbol id="i-wheat" viewBox="0 0 24 24"><path d="M2 22 16 8"/><path d="M3.47 12.53 5 11l1.53 1.53a3.5 3.5 0 0 1 0 4.94L5 19l-1.53-1.53a3.5 3.5 0 0 1 0-4.94Z"/><path d="M7.47 8.53 9 7l1.53 1.53a3.5 3.5 0 0 1 0 4.94L9 15l-1.53-1.53a3.5 3.5 0 0 1 0-4.94Z"/><path d="M11.47 4.53 13 3l1.53 1.53a3.5 3.5 0 0 1 0 4.94L13 11l-1.53-1.53a3.5 3.5 0 0 1 0-4.94Z"/><path d="M20 2h2v2a4 4 0 0 1-4 4h-2V6a4 4 0 0 1 4-4Z"/><path d="M11.47 17.47 13 19l-1.53 1.53a3.5 3.5 0 0 1-4.94 0L5 19l1.53-1.53a3.5 3.5 0 0 1 4.94 0Z"/><path d="M15.47 13.47 17 15l-1.53 1.53a3.5 3.5 0 0 1-4.94 0L9 15l1.53-1.53a3.5 3.5 0 0 1 4.94 0Z"/><path d="M19.47 9.47 21 11l-1.53 1.53a3.5 3.5 0 0 1-4.94 0L13 11l1.53-1.53a3.5 3.5 0 0 1 4.94 0Z"/></symbol>
  <symbol id="i-target" viewBox="0 0 24 24"><circle cx="12" cy="12" r="10"/><circle cx="12" cy="12" r="6"/><circle cx="12" cy="12" r="2"/></symbol>
  <symbol id="i-percent" viewBox="0 0 24 24"><line x1="19" x2="5" y1="5" y2="19"/><circle cx="6.5" cy="6.5" r="2.5"/><circle cx="17.5" cy="17.5" r="2.5"/></symbol>
  <symbol id="i-ruler" viewBox="0 0 24 24"><path d="M21.3 15.3a2.4 2.4 0 0 1 0 3.4l-2.6 2.6a2.4 2.4 0 0 1-3.4 0L2.7 8.7a2.41 2.41 0 0 1 0-3.4l2.6-2.6a2.41 2.41 0 0 1 3.4 0Z"/><path d="m14.5 12.5 2-2"/><path d="m11.5 9.5 2-2"/><path d="m8.5 6.5 2-2"/><path d="m17.5 15.5 2-2"/></symbol>
  <symbol id="i-bed" viewBox="0 0 24 24"><path d="M2 4v16"/><path d="M2 8h18a2 2 0 0 1 2 2v10"/><path d="M2 17h20"/><path d="M6 8v9"/></symbol>
  <symbol id="i-alarm-clock" viewBox="0 0 24 24"><circle cx="12" cy="13" r="8"/><path d="M12 9v4l2 2"/><path d="M5 3 2 6"/><path d="m22 6-3-3"/><path d="M6.38 18.7 4 21"/><path d="M17.64 18.67 20 21"/></symbol>
  <symbol id="i-activity" viewBox="0 0 24 24"><polyline points="22 12 18 12 15 21 9 3 6 12 2 12"/></symbol>
  <symbol id="i-baby" viewBox="0 0 24 24"><path d="M9 12h.01"/><path d="M15 12h.01"/><path d="M10 16c.5.3 1.2.5 2 .5s1.5-.2 2-.5"/><path d="M19 6.3a9 9 0 0 1 1.8 3.9 2 2 0 0 1 0 3.6 9 9 0 0 1-17.6 0 2 2 0 0 1 0-3.6A9 9 0 0 1 12 3c2 0 3.5 1.1 3.5 2.5s-.9 2.5-2 2.5c-.8 0-1.5-.4-1.5-1"/></symbol>
  <symbol id="i-calendar-heart" viewBox="0 0 24 24"><path d="M21 10V6a2 2 0 0 0-2-2H5a2 2 0 0 0-2 2v14a2 2 0 0 0 2 2h7"/><path d="M16 2v4"/><path d="M8 2v4"/><path d="M3 10h18"/><path d="M21.29 14.7a2.43 2.43 0 0 0-2.65-.52c-.3.12-.57.3-.8.53l-.34.34-.35-.34a2.43 2.43 0 0 0-2.65-.53c-.3.12-.56.3-.79.53-.95.94-1 2.53.2 3.74L17.75 22l3.31-3.27c1.2-1.21 1.14-2.8.23-3.73Z"/></symbol>
  <symbol id="i-calendar-days" viewBox="0 0 24 24"><path d="M8 2v4"/><path d="M16 2v4"/><rect width="18" height="18" x="3" y="4" rx="2"/><path d="M3 10h18"/><path d="M8 14h.01"/><path d="M12 14h.01"/><path d="M16 14h.01"/><path d="M8 18h.01"/><path d="M12 18h.01"/><path d="M16 18h.01"/></symbol>
  <symbol id="i-calendar-clock" viewBox="0 0 24 24"><path d="M21 7.5V6a2 2 0 0 0-2-2H5a2 2 0 0 0-2 2v14a2 2 0 0 0 2 2h3.5"/><path d="M16 2v4"/><path d="M8 2v4"/><path d="M3 10h5"/><path d="M17.5 17.5 16 16.3V14"/><circle cx="16" cy="16" r="6"/></symbol>
  <symbol id="i-timer" viewBox="0 0 24 24"><line x1="10" x2="14" y1="2" y2="2"/><line x1="12" x2="15" y1="14" y2="11"/><circle cx="12" cy="14" r="8"/></symbol>
  <symbol id="i-footprints" viewBox="0 0 24 24"><path d="M4 16v-2.38C4 11.5 2.97 10.5 3 8c.03-2.72 1.49-6 4.5-6C9.37 2 10 3.8 10 5.5c0 3.11-2 5.66-2 8.68V16a2 2 0 1 1-4 0Z"/><path d="M20 20v-2.38c0-2.12 1.03-3.12 1-5.62-.03-2.72-1.49-6-4.5-6C14.63 6 14 7.8 14 9.5c0 3.11 2 5.66 2 8.68V20a2 2 0 1 0 4 0Z"/><path d="M16 17h4"/><path d="M4 13h4"/></symbol>
  <symbol id="i-wine" viewBox="0 0 24 24"><path d="M8 22h8"/><path d="M7 10h10"/><path d="M12 15v7"/><path d="M12 15a5 5 0 0 0 5-5c0-2-.5-4-2-8H9c-1.5 4-2 6-2 8a5 5 0 0 0 5 5Z"/></symbol>
  <symbol id="i-beer" viewBox="0 0 24 24"><path d="M17 11h1a3 3 0 0 1 0 6h-1"/><path d="M9 12v6"/><path d="M13 12v6"/><path d="M14 7.5c-1 0-1.44.5-3 .5s-2-.5-3-.5-1.72.5-2.5.5a2.5 2.5 0 0 1 0-5c.78 0 1.57.5 2.5.5S9.44 3 11 3s2 .5 3 .5 1.72-.5 2.5-.5a2.5 2.5 0 0 1 0 5c-.78 0-1.5-.5-2.5-.5Z"/><path d="M5 8v10a2 2 0 0 0 2 2h8a2 2 0 0 0 2-2V8"/></symbol>
  <symbol id="i-coffee" viewBox="0 0 24 24"><path d="M10 2v2"/><path d="M14 2v2"/><path d="M16 8a1 1 0 0 1 1 1v8a4 4 0 0 1-4 4H7a4 4 0 0 1-4-4V9a1 1 0 0 1 1-1h14a4 4 0 1 1 0 8h-1"/><path d="M6 2v2"/></symbol>
  <symbol id="i-hourglass" viewBox="0 0 24 24"><path d="M5 22h14"/><path d="M5 2h14"/><path d="M17 22v-4.172a2 2 0 0 0-.586-1.414L12 12l-4.414 4.414A2 2 0 0 0 7 17.828V22"/><path d="M7 2v4.172a2 2 0 0 0 .586 1.414L12 12l4.414-4.414A2 2 0 0 0 17 6.172V2"/></symbol>
  <symbol id="i-utensils" viewBox="0 0 24 24"><path d="M3 2v7c0 1.1.9 2 2 2h0a2 2 0 0 0 2-2V2"/><path d="M7 2v20"/><path d="M21 15V2a5 5 0 0 0-5 5v6c0 1.1.9 2 2 2h3Zm0 0v7"/></symbol>
  <symbol id="i-beef" viewBox="0 0 24 24"><circle cx="12.5" cy="8.5" r="2.5"/><path d="M12.5 2a6.5 6.5 0 0 0-6.22 4.6c-1.1 3.13-.78 3.9-3.18 6.08A3 3 0 0 0 5 18c4 0 8.4-1.8 11.4-4.3A6.5 6.5 0 0 0 12.5 2Z"/><path d="m18.5 6 2.19 4.5a6.48 6.48 0 0 1 .31 2 6.49 6.49 0 0 1-2.6 5.2C15.4 20.2 11 22 7 22a3 3 0 0 1-2.68-1.66L2.4 16.5"/></symbol>
  <symbol id="i-trending-down" viewBox="0 0 24 24"><polyline points="22 17 13.5 8.5 8.5 13.5 2 7"/><polyline points="16 17 22 17 22 11"/></symbol>
  <symbol id="i-trending-up" viewBox="0 0 24 24"><polyline points="22 7 13.5 15.5 8.5 10.5 2 17"/><polyline points="16 7 22 7 22 13"/></symbol>
  <symbol id="i-person-standing" viewBox="0 0 24 24"><circle cx="12" cy="5" r="1"/><path d="m9 20 3-6 3 6"/><path d="m6 8 6 2 6-2"/><path d="M12 10v4"/></symbol>
  <symbol id="i-weight" viewBox="0 0 24 24"><circle cx="12" cy="5" r="3"/><path d="M6.5 8a2 2 0 0 0-1.905 1.46L2.1 18.5A2 2 0 0 0 4 21h16a2 2 0 0 0 1.925-2.54L19.4 9.5A2 2 0 0 0 17.48 8Z"/></symbol>
  <symbol id="i-moon-star" viewBox="0 0 24 24"><path d="M12 3a6 6 0 0 0 9 9 9 9 0 1 1-9-9Z"/><path d="M19 3v4"/><path d="M21 5h-4"/></symbol>
  <symbol id="i-cookie" viewBox="0 0 24 24"><path d="M12 2a10 10 0 1 0 10 10 4 4 0 0 1-5-5 4 4 0 0 1-5-5"/><path d="M8.5 8.5v.01"/><path d="M16 15.5v.01"/><path d="M12 12v.01"/><path d="M11 17v.01"/><path d="M7 14v.01"/></symbol>
  <symbol id="i-wind" viewBox="0 0 24 24"><path d="M12.8 19.6A2 2 0 1 0 14 16H2"/><path d="M17.5 8a2.5 2.5 0 1 1 1.79 4.25H2"/><path d="M9.8 4.4A2 2 0 1 1 11 8H2"/></symbol>
  <symbol id="i-armchair" viewBox="0 0 24 24"><path d="M19 9V6a2 2 0 0 0-2-2H7a2 2 0 0 0-2 2v3"/><path d="M3 11v5a2 2 0 0 0 2 2h14a2 2 0 0 0 2-2v-5a2 2 0 0 0-4 0v2H7v-2a2 2 0 0 0-4 0Z"/><path d="M5 18v2"/><path d="M19 18v2"/></symbol>
  <symbol id="i-cigarette" viewBox="0 0 24 24"><path d="M17 12H3a1 1 0 0 0-1 1v2a1 1 0 0 0 1 1h14"/><path d="M18 8c0-2.5-2-2.5-2-5"/><path d="M21 16a1 1 0 0 0 1-1v-2a1 1 0 0 0-1-1"/><path d="M22 8c0-2.5-2-2.5-2-5"/><path d="M7 12v4"/></symbol>
  <symbol id="i-battery-low" viewBox="0 0 24 24"><rect width="16" height="10" x="2" y="7" rx="2" ry="2"/><line x1="22" x2="22" y1="11" y2="13"/><line x1="6" x2="6" y1="11" y2="13"/></symbol>
  <symbol id="i-heart" viewBox="0 0 24 24"><path d="M19 14c1.49-1.46 3-3.21 3-5.5A5.5 5.5 0 0 0 16.5 3c-1.76 0-3 .5-4.5 2-1.5-1.5-2.74-2-4.5-2A5.5 5.5 0 0 0 2 8.5c0 2.3 1.5 4.05 3 5.5l7 7Z"/></symbol>
</svg>
